<svg xmlns="http://www.w3.org/2000/svg" viewBox="0 0 480.24424 505.26618"><defs><style>.cls-1,.cls-5{fill:#f0b536;}.cls-1,.cls-10,.cls-11,.cls-12,.cls-16,.cls-17,.cls-24{stroke:#231f20;}.cls-1,.cls-10,.cls-11,.cls-12,.cls-16,.cls-17,.cls-18,.cls-19,.cls-20,.cls-21,.cls-24,.cls-29,.cls-3,.cls-7{stroke-miterlimit:10;}.cls-1,.cls-10,.cls-12,.cls-24,.cls-29{stroke-width:5px;}.cls-2{fill:#ffcd0f;}.cls-10,.cls-16,.cls-17,.cls-18,.cls-21,.cls-29,.cls-3,.cls-7{fill:none;}.cls-20,.cls-21,.cls-29,.cls-3,.cls-7{stroke:#650026;}.cls-17,.cls-3{stroke-width:7px;}.cls-4{fill:#ffe8a2;}.cls-6{fill:#ef9f38;}.cls-7{stroke-width:8px;}.cls-11,.cls-8,.cls-9{fill:#231f20;}.cls-9{font-size:31px;font-family:BritannicBold, Britannic Bold;letter-spacing:0.02em;}.cls-11,.cls-19{stroke-width:0.25px;}.cls-12{fill:#e34242;}.cls-13{fill:#ca3c42;}.cls-14,.cls-24{fill:#fff;}.cls-15{fill:#62aab3;}.cls-16{stroke-width:2px;}.cls-18,.cls-19{stroke:#fae2d8;}.cls-18{stroke-width:3px;}.cls-19{fill:#fae2d8;}.cls-20{fill:#dba659;}.cls-20,.cls-21{stroke-width:6px;}.cls-22{fill:#bb8b46;}.cls-23{fill:#6eabb2;}.cls-25{fill:#650026;}.cls-26{fill:#c85725;}.cls-27{fill:#ab8e6a;}.cls-28{fill:#947659;}</style></defs><g id="Circle"><circle class="cls-1" cx="240.40896" cy="235.56043" r="205.44091"/></g><g id="Sign"><polygon class="cls-2" points="145.314 406.41 334.285 406.41 336.004 438.992 145.314 438.992 145.314 406.41"/><polygon class="cls-2" points="147.059 383.138 334.285 382.53 334.285 390.847 144.586 390.847 147.059 383.138"/><line class="cls-3" x1="198.40441" y1="328.44679" x2="198.40441" y2="379.35588"/><line class="cls-3" x1="282.47714" y1="328.44679" x2="282.47714" y2="379.35588"/><rect class="cls-4" x="145.3135" y="390.84679" width="188.97131" height="3.63636"/><rect class="cls-2" x="145.3135" y="394.48316" width="188.97131" height="6.69091"/><rect class="cls-5" x="145.3135" y="401.17407" width="188.97131" height="5.23636"/><rect class="cls-5" x="145.3135" y="438.99225" width="190.69091" height="14.69091"/><rect class="cls-2" x="145.3135" y="453.68316" width="190.69091" height="5.81818"/><rect class="cls-5" x="145.3135" y="459.50134" width="190.69091" height="5.96364"/><path class="cls-2" d="M214.34546,600.34546H405.03638v17.01819H214.34546Z" transform="translate(-69.03195 -134.88048)"/><rect class="cls-4" x="145.18731" y="482.48317" width="190.94329" height="3.63636"/><rect class="cls-2" x="145.18731" y="486.11953" width="190.94329" height="5.09091"/><path class="cls-6" d="M214.21926,626.09089h190.9433l-.25238,7.56366-190.69092-1.16363Z" transform="translate(-69.03195 -134.88048)"/><path class="cls-7" d="M220.67273,515.32727q89.23636-.3273,178.47272-.65454a11.70085,11.70085,0,0,1,5.01819,3.70911,13.12177,13.12177,0,0,1,2.18182,5.67273c.675,5.05664.15787,46.72509-1.2598,103.39776a8.61738,8.61738,0,0,1-2.01294,5.91132,8.53073,8.53073,0,0,1-4.36364,2.18182c-6.77616,1.26557-156.24044.16589-178.25454,0-1.75991-.21918-4.54788-.85687-6.10908-3.05456a7.87633,7.87633,0,0,1-1.09091-5.45453c.47477-4.30133.24379-19.59479-.21819-50.18183-.551-36.48224-1.30908-47.78167-1.30908-47.7818-.13174-1.9638-.52609-7.404,2.91524-10.87854A10.77584,10.77584,0,0,1,220.67273,515.32727Z" transform="translate(-69.03195 -134.88048)"/><path class="cls-8" d="M231.50909,623.4h7.92728a2.67837,2.67837,0,0,1,1.8909,2.18183,2.70733,2.70733,0,0,1-1.81818,2.8363q-3.92727.03634-7.85455.07276a2.74746,2.74746,0,0,1-1.99969-2.83289A2.71111,2.71111,0,0,1,231.50909,623.4Z" transform="translate(-69.03195 -134.88048)"/><path class="cls-8" d="M262.85455,623.4h92.5091c1.89654-.16815,3.35974.93287,3.4909,1.96363.14493,1.13885-1.26107,2.78344-3.4909,2.76361h-92.5091a2.44225,2.44225,0,1,1,0-4.72724Z" transform="translate(-69.03195 -134.88048)"/><path class="cls-8" d="M379.14545,623.379h7.92727a2.53646,2.53646,0,0,1,2.4,2.78461,2.49909,2.49909,0,0,1-2.4,1.988h-7.92727a2.47035,2.47035,0,0,1,0-4.77264Z" transform="translate(-69.03195 -134.88048)"/><text class="cls-9" transform="translate(178.30784 430.89058)">Interlake<tspan x="-23.6958" y="37.19922">Cricket Club</tspan></text></g><g id="Seams"><path class="cls-10" d="M427.29848,419.21817a.49949.49949,0,0,1-.47265-.32589.48.48,0,0,1,.30957-.61494c7.07031-2.35585,24.59765-9.89665,34.627-28.99095,11.582-22.05045,4.501-42.9872,2.05469-48.87872a.47825.47825,0,0,1,.27734-.62911.50726.50726,0,0,1,.65039.26827c2.48633,5.98739,9.68164,27.26421-2.0918,49.67786-10.19433,19.40885-28.00683,27.07245-35.1914,29.467A.51679.51679,0,0,1,427.29848,419.21817Z" transform="translate(-69.03195 -134.88048)"/><path class="cls-11" d="M469.98181,348.85455c.67365.17118,1.41879-.46771,2.90909-1.74545A16.2292,16.2292,0,0,0,475.8,344.05453c2.24936-3.19412,3.73047-8.45358,2.32727-9.3818-1.25382-.82941-4.47574,2.02081-5.8909,3.27274-1.75134,1.54928-3.17331,2.80722-3.70908,4.94543C467.89651,345.4082,468.65164,348.51657,469.98181,348.85455Z" transform="translate(-69.03195 -134.88048)"/><path class="cls-11" d="M462.78183,344.27274a11.11368,11.11368,0,0,0-3.05457-1.89093,12.954,12.954,0,0,0-3.85452-1.16364c-.87665-.11273-4.64648-.59753-5.34454.86761-.56781,1.19181,1.17657,3.08661,2.29,4.296a10.86261,10.86261,0,0,0,5.67273,3.56366,16.0587,16.0587,0,0,0,3.85455.14544c1.77536-.04516,2.6694-.07657,2.98181-.50909C466.109,348.49954,464.46564,345.80426,462.78183,344.27274Z" transform="translate(-69.03195 -134.88048)"/><path class="cls-11" d="M470.89871,368.99671c.6005.35,1.49273-.05908,3.27718-.8772a16.229,16.229,0,0,0,3.63756-2.13573c3.04173-2.45151,5.91344-7.10005,4.82-8.37868-.977-1.14251-4.8591.71065-6.56422,1.52464-2.11017,1.00732-3.82348,1.82521-4.92715,3.73332C469.84269,365.10947,469.713,368.30562,470.89871,368.99671Z" transform="translate(-69.03195 -134.88048)"/><path class="cls-11" d="M466.94547,364.4c-.17984-.44555-.44288-.84491-1.7681-2.05832a21.36173,21.36173,0,0,0-4.33353-3.45724c-1.844-.961-5.7796-2.32245-7.04385-.86624-1.333,1.5354.84332,5.58188,2.67273,7.69089A12.30976,12.30976,0,0,0,461.76364,369.2c1.56.58615,2.63025.98828,3.65454.49091C467.06177,368.89282,467.67978,366.21918,466.94547,364.4Z" transform="translate(-69.03195 -134.88048)"/><path class="cls-11" d="M467.70908,382.67273a15.854,15.854,0,0,1,1.96365-.54547,22.14059,22.14059,0,0,1,4.96362-.27271c3.18546.00742,3.98654.07987,4.983.55185.65726.31134,1.50269.71183,1.617,1.41178.03546.21719.08826,1.00009-2.96359,3.12127-2.24234,1.55854-3.3635,2.3378-5.21824,2.82419a12.38558,12.38558,0,0,1-5.18179.21817,3.907,3.907,0,0,1-3.6-2.34546C463.65329,385.8064,465.02313,383.2608,467.70908,382.67273Z" transform="translate(-69.03195 -134.88048)"/><path class="cls-11" d="M462.90909,380.21817c-.08338-.20123-.094-.17282-1.47272-2.29089-1.39816-2.14792-1.47705-2.315-1.69092-2.6182-1.49569-2.12012-4.88785-4.2229-6.43637-3.32727-1.72854.99976-.99634,5.641.27274,8.45456a14.03087,14.03087,0,0,0,3.6,4.63635c1.44428,1.3476,2.16642,2.02143,3.05454,1.90909C462.22192,386.73068,463.93484,382.69394,462.90909,380.21817Z" transform="translate(-69.03195 -134.88048)"/><path class="cls-11" d="M452.43637,398.6a12.06066,12.06066,0,0,0-1.8-8.07273c-.784-1.41723-2.47555-4.475-3.92727-4.2-1.61142.30527-2.38,4.61325-1.96363,8.01819.54523,4.45868,3.33741,9.12744,5.29093,8.83636C451.6857,402.9361,452.32977,399.21573,452.43637,398.6Z" transform="translate(-69.03195 -134.88048)"/><path class="cls-11" d="M457.50909,401.98181a8.94515,8.94515,0,0,1,4.653.71512c2.01138.69437,6.27991,2.61151,6.03793,4.30307-.22513,1.57373-4.24,2.15366-5.94546,2.4a15.54364,15.54364,0,0,1-8.78183-1.41818c-1.12863-.56891-1.43021-.92135-1.52725-1.30908C451.55038,405.09436,454.43317,402.48489,457.50909,401.98181Z" transform="translate(-69.03195 -134.88048)"/><path class="cls-11" d="M439.18182,409.78183a7.13425,7.13425,0,0,0,.1091-2.07275,25.63491,25.63491,0,0,0-.37967-5.49674c-.10192-.44067-1.18469-5.12131-2.83853-5.19415-1.89868-.08362-4.00509,5.92984-3.92727,11.18182.02868,1.93714.06494,4.38291,1.47274,5.07273C435.30261,414.09808,438.46255,412.1705,439.18182,409.78183Z" transform="translate(-69.03195 -134.88048)"/><path class="cls-11" d="M440.69363,414.8013a8.50146,8.50146,0,0,1,3.01545-.21948,10.678,10.678,0,0,1,4.8,1.69092c1.85715,1.19787,4.93174,3.95468,4.25455,5.56362-.53293,1.26624-3.16479,1.28772-5.78183,1.30909a12.58957,12.58957,0,0,1-5.82556-.93821c-1.62811-.74945-4.8399-2.74993-4.48352-4.68C436.99588,415.77722,440.09116,414.9603,440.69363,414.8013Z" transform="translate(-69.03195 -134.88048)"/><path class="cls-10" d="M191.47105,419.76354a.4995.4995,0,0,0,.47265-.32589.48.48,0,0,0-.30957-.61494c-7.07031-2.35585-24.59765-9.89665-34.62695-28.99095-11.582-22.05045-4.501-42.98721-2.05469-48.87872a.47824.47824,0,0,0-.27734-.62911.50726.50726,0,0,0-.65039.26827c-2.48633,5.98739-9.68164,27.26421,2.0918,49.67786,10.19433,19.40885,28.00683,27.07245,35.1914,29.467A.51679.51679,0,0,0,191.47105,419.76354Z" transform="translate(-69.03195 -134.88048)"/><path class="cls-11" d="M148.78772,349.39992c-.67365.17118-1.41879-.46771-2.90909-1.74545a16.22888,16.22888,0,0,1-2.90909-3.05457c-2.24936-3.19412-3.73047-8.45358-2.32727-9.3818,1.25382-.82941,4.47574,2.02081,5.8909,3.27273,1.75134,1.54929,3.17331,2.80722,3.70908,4.94544C150.873,345.95357,150.11789,349.06194,148.78772,349.39992Z" transform="translate(-69.03195 -134.88048)"/><path class="cls-11" d="M155.9877,344.8181a11.11428,11.11428,0,0,1,3.05456-1.89093,12.95458,12.95458,0,0,1,3.85453-1.16363c.87665-.11273,4.64648-.59754,5.34454.86761.56781,1.19181-1.17657,3.08661-2.29,4.296a10.86249,10.86249,0,0,1-5.67273,3.56366,16.05805,16.05805,0,0,1-3.85455.14545c-1.77536-.04517-2.6694-.07657-2.98181-.50909C152.66052,349.04491,154.30389,346.34963,155.9877,344.8181Z" transform="translate(-69.03195 -134.88048)"/><path class="cls-11" d="M147.87082,369.54208c-.6005.35-1.49273-.05908-3.27718-.8772a16.229,16.229,0,0,1-3.63756-2.13573c-3.04173-2.45151-5.91344-7.10005-4.82-8.37868.977-1.14251,4.8591.71065,6.56422,1.52464,2.11017,1.00732,3.82348,1.82521,4.92715,3.73332C148.92684,365.65484,149.05656,368.851,147.87082,369.54208Z" transform="translate(-69.03195 -134.88048)"/><path class="cls-11" d="M151.82406,364.94536c.17984-.44555.44288-.84491,1.7681-2.05832a21.36173,21.36173,0,0,1,4.33353-3.45724c1.844-.961,5.7796-2.32245,7.04385-.86624,1.333,1.5354-.84332,5.58188-2.67273,7.69088a12.30971,12.30971,0,0,1-5.29092,3.49094c-1.56.58615-2.63025.98828-3.65454.49091C151.70776,369.43819,151.08975,366.76455,151.82406,364.94536Z" transform="translate(-69.03195 -134.88048)"/><path class="cls-11" d="M151.06045,383.2181a15.85218,15.85218,0,0,0-1.96365-.54547,22.14059,22.14059,0,0,0-4.96362-.27271c-3.18546.00742-3.98655.07987-4.983.55185-.65726.31134-1.50269.71182-1.617,1.41178-.03546.21719-.08826,1.00009,2.96359,3.12127,2.24234,1.55853,3.3635,2.3378,5.21823,2.82419a12.38563,12.38563,0,0,0,5.1818.21817,3.907,3.907,0,0,0,3.6-2.34546C155.11624,386.35177,153.7464,383.80617,151.06045,383.2181Z" transform="translate(-69.03195 -134.88048)"/><path class="cls-11" d="M155.86044,380.76354c.08338-.20123.094-.17282,1.47272-2.29089,1.39816-2.14792,1.47705-2.315,1.69092-2.6182,1.49569-2.12012,4.88784-4.2229,6.43637-3.32727,1.72854.99976.99634,5.641-.27274,8.45456a14.03087,14.03087,0,0,1-3.6,4.63635c-1.44428,1.3476-2.16642,2.02143-3.05454,1.90909C156.54761,387.27605,154.83468,383.23931,155.86044,380.76354Z" transform="translate(-69.03195 -134.88048)"/><path class="cls-11" d="M166.33316,399.14537a12.06065,12.06065,0,0,1,1.8-8.07272c.784-1.41723,2.47555-4.475,3.92727-4.2,1.61142.30527,2.38,4.61325,1.96363,8.01819-.54523,4.45868-3.33741,9.12744-5.29093,8.83636C167.08383,403.48146,166.43976,399.7611,166.33316,399.14537Z" transform="translate(-69.03195 -134.88048)"/><path class="cls-11" d="M161.26044,402.52718a8.94515,8.94515,0,0,0-4.653.71512c-2.01138.69437-6.27991,2.61151-6.03793,4.30307.22513,1.57373,4.24,2.15365,5.94546,2.4a15.54365,15.54365,0,0,0,8.78183-1.41818c1.12863-.56891,1.43021-.92136,1.52725-1.30908C167.21914,405.63973,164.33636,403.03026,161.26044,402.52718Z" transform="translate(-69.03195 -134.88048)"/><path class="cls-11" d="M179.58771,410.3272a7.1343,7.1343,0,0,1-.1091-2.07276,25.63566,25.63566,0,0,1,.37966-5.49673c.10193-.44067,1.1847-5.12131,2.83854-5.19415,1.89868-.08362,4.00509,5.92984,3.92727,11.18182-.02868,1.93713-.06494,4.38291-1.47275,5.07272C183.46692,414.64345,180.307,412.71587,179.58771,410.3272Z" transform="translate(-69.03195 -134.88048)"/><path class="cls-11" d="M178.0759,415.34667a8.50123,8.50123,0,0,0-3.01545-.21948,10.678,10.678,0,0,0-4.8,1.69091c-1.85715,1.19788-4.93174,3.95469-4.25455,5.56363.53293,1.26624,3.16479,1.28772,5.78183,1.30909a12.58957,12.58957,0,0,0,5.82556-.93821c1.62811-.74945,4.8399-2.74994,4.48352-4.68C181.77365,416.32259,178.67837,415.50567,178.0759,415.34667Z" transform="translate(-69.03195 -134.88048)"/></g><g id="Ball"><path class="cls-12" d="M233.41881,212.33017c.22979,41.07189,34.83473,72.96353,73.09441,74.00293,41.1181,1.117,78.52322-33.616,77.33179-76.58444-1.14305-41.22388-37.35215-73.4421-77.33179-72.28192C267.55488,138.59728,233.18863,171.18554,233.41881,212.33017Z" transform="translate(-69.03195 -134.88048)"/><path class="cls-13" d="M381.61818,222.96364c-2.58089,3.56513-28.09355,37.539-73.16483,37.65076-44.28687.10985-69.80423-32.56737-72.58062-36.25358a71.75514,71.75514,0,0,0,8.683,25.31411c15.43335,26.873,43.83839,34.4342,50.7471,36.07166a86.23028,86.23028,0,0,0,37.1541-3.65282c8.31882-2.75174,25.90984-8.57055,38.05169-26.24811A65.56664,65.56664,0,0,0,381.61818,222.96364Z" transform="translate(-69.03195 -134.88048)"/><line class="cls-12" x1="208.74051" y1="9.97407" x2="208.74051" y2="143.71952"/><line class="cls-12" x1="270.48597" y1="9.97407" x2="270.48597" y2="143.71952"/><path class="cls-14" d="M300.52728,260.16364l-12.2182-1.84214V139.98181h12.2182Z" transform="translate(-69.03195 -134.88048)"/><path class="cls-14" d="M300.74545,282.96362" transform="translate(-69.03195 -134.88048)"/><path class="cls-14" d="M329.34714,258.03268,317.4,260.16364V139.98181h11.94715Z" transform="translate(-69.03195 -134.88048)"/><path class="cls-14" d="M300.74545,282.96362" transform="translate(-69.03195 -134.88048)"/><path class="cls-15" d="M300.52728,285.25049q-5.78183-.98886-11.56366-1.97775V258.47192l11.56366,1.69172Z" transform="translate(-69.03195 -134.88048)"/><line class="cls-16" x1="220.36805" y1="17.46497" x2="220.22259" y2="131.35588"/><circle class="cls-16" cx="220.36805" cy="18.50157" r="1.0366"/><circle class="cls-16" cx="220.36805" cy="27.64679" r="1.0366"/><circle class="cls-16" cx="220.29532" cy="35.79225" r="1.0366"/><circle class="cls-16" cx="220.36805" cy="44.81043" r="1.0366"/><circle class="cls-16" cx="220.36805" cy="52.95588" r="1.0366"/><circle class="cls-16" cx="220.36805" cy="62.13793" r="1.0366"/><circle class="cls-16" cx="220.36805" cy="70.80996" r="1.0366"/><circle class="cls-16" cx="220.28884" cy="79.48199" r="1.0366"/><circle class="cls-16" cx="220.36805" cy="88.15402" r="1.0366"/><circle class="cls-16" cx="220.26669" cy="96.82605" r="1.0366"/><circle class="cls-16" cx="220.25562" cy="105.49809" r="1.0366"/><circle class="cls-16" cx="220.24555" cy="113.38049" r="1.0366"/><circle class="cls-16" cx="220.36805" cy="122.17383" r="1.0366"/><circle class="cls-16" cx="220.22309" cy="130.96718" r="1.0366"/><path class="cls-15" d="M317.4,286.35931q5.78184-.98886,11.56366-1.97775l-.18182-26.07248q-5.69092.98167-11.38184,1.96338Z" transform="translate(-69.03195 -134.88048)"/><line class="cls-16" x1="259.42354" y1="17.19091" x2="259.27808" y2="131.08182"/><circle class="cls-16" cx="259.42354" cy="18.22751" r="1.0366"/><circle class="cls-16" cx="259.42354" cy="27.37273" r="1.0366"/><circle class="cls-16" cx="259.35081" cy="35.51818" r="1.0366"/><circle class="cls-16" cx="259.42354" cy="44.53636" r="1.0366"/><circle class="cls-16" cx="259.42354" cy="52.68182" r="1.0366"/><circle class="cls-16" cx="259.42354" cy="61.86387" r="1.0366"/><circle class="cls-16" cx="259.42354" cy="70.5359" r="1.0366"/><circle class="cls-16" cx="259.34433" cy="79.20793" r="1.0366"/><circle class="cls-16" cx="259.42354" cy="87.87996" r="1.0366"/><circle class="cls-16" cx="259.32218" cy="96.55199" r="1.0366"/><circle class="cls-16" cx="259.31111" cy="105.22402" r="1.0366"/><circle class="cls-16" cx="259.30104" cy="113.10642" r="1.0366"/><circle class="cls-16" cx="259.42354" cy="121.89977" r="1.0366"/><circle class="cls-16" cx="259.27858" cy="130.69311" r="1.0366"/><circle class="cls-10" cx="239.61324" cy="77.61885" r="75.11885"/><path class="cls-11" d="M297.0235,152.28717c.03357.0329.06487.06122.09808.09363.1958-.15534.39908-.30481.61208-.447a26.16029,26.16029,0,0,0,3.25519-2.23865c.15632-.14081.313-.27283.46908-.40991-.223-.262-.46609-.52912-.72838-.81439-1.18635-1.29-1.85046-2.01227-2.947-2.13379a2.66309,2.66309,0,0,0-2.11991.62658,2.72412,2.72412,0,0,0-.75974,1.95533C294.91123,150.218,295.8209,151.10907,297.0235,152.28717Z" transform="translate(-69.03195 -134.88048)"/><path class="cls-11" d="M300.92235,148.78731c-.03357-.0329-.06487-.06122-.09808-.09363-.19581.15533-.39908.30481-.61208.447a26.1604,26.1604,0,0,0-3.2552,2.23865c-.15632.14081-.313.27283-.46908.40991.22305.262.4661.52912.72838.81439,1.18635,1.29,1.85046,2.01227,2.947,2.13379a2.66311,2.66311,0,0,0,2.11992-.62658,2.72417,2.72417,0,0,0,.75974-1.95533C303.03461,150.85652,302.12494,149.96541,300.92235,148.78731Z" transform="translate(-69.03195 -134.88048)"/><path class="cls-11" d="M297.0235,162.64084c.03357.0329.06487.06122.09808.09363.1958-.15534.39908-.30481.61208-.447a26.16029,26.16029,0,0,0,3.25519-2.23865c.15632-.14081.313-.27283.46908-.40991-.223-.262-.46609-.52912-.72838-.8144-1.18635-1.29-1.85046-2.01226-2.947-2.13378a2.66309,2.66309,0,0,0-2.11991.62658,2.72412,2.72412,0,0,0-.75974,1.95533C294.91123,160.57163,295.8209,161.46274,297.0235,162.64084Z" transform="translate(-69.03195 -134.88048)"/><path class="cls-11" d="M300.92235,159.141c-.03357-.0329-.06487-.06122-.09808-.09363-.19581.15533-.39908.30481-.61208.447a26.15932,26.15932,0,0,0-3.2552,2.23865c-.15632.14081-.313.27283-.46908.40991.22305.262.4661.52911.72838.81439,1.18635,1.29,1.85046,2.01227,2.947,2.13379a2.66311,2.66311,0,0,0,2.11992-.62658,2.72417,2.72417,0,0,0,.75974-1.95533C303.03461,161.21019,302.12494,160.31908,300.92235,159.141Z" transform="translate(-69.03195 -134.88048)"/><path class="cls-11" d="M296.82872,172.58976c.03357.0329.06487.06122.09808.09363.1958-.15534.39907-.30481.61208-.447a26.15914,26.15914,0,0,0,3.25519-2.23864c.15632-.14081.313-.27283.46908-.40992-.223-.262-.46609-.52911-.72838-.81439-1.18635-1.29-1.85046-2.01227-2.947-2.13379a2.66311,2.66311,0,0,0-2.11991.62659,2.7241,2.7241,0,0,0-.75974,1.95532C294.71645,170.52054,295.62612,171.41166,296.82872,172.58976Z" transform="translate(-69.03195 -134.88048)"/><path class="cls-11" d="M300.72756,169.08989c-.03356-.03289-.06486-.06121-.09808-.09362-.1958.15533-.39907.30481-.61208.447a26.16,26.16,0,0,0-3.25519,2.23865c-.15632.1408-.313.27282-.46908.40991.223.262.4661.52911.72838.81439,1.18635,1.29,1.85046,2.01227,2.947,2.13379a2.66311,2.66311,0,0,0,2.11991-.62659,2.7241,2.7241,0,0,0,.75974-1.95532C302.83983,171.15911,301.93016,170.268,300.72756,169.08989Z" transform="translate(-69.03195 -134.88048)"/><path class="cls-11" d="M296.92611,182.89912c.03357.0329.06487.06122.09808.09363.1958-.15534.39907-.30481.61208-.447a26.16029,26.16029,0,0,0,3.25519-2.23865c.15632-.14081.313-.27283.46908-.40991-.223-.262-.46609-.52912-.72838-.8144-1.18635-1.29-1.85046-2.01226-2.947-2.13379a2.66311,2.66311,0,0,0-2.11991.62659,2.72411,2.72411,0,0,0-.75974,1.95532C294.81384,180.8299,295.72351,181.721,296.92611,182.89912Z" transform="translate(-69.03195 -134.88048)"/><path class="cls-11" d="M300.825,179.39926c-.03357-.0329-.06487-.06122-.09809-.09363-.1958.15533-.39907.30481-.61208.447a26.16,26.16,0,0,0-3.25519,2.23865c-.15632.14081-.313.27282-.46908.40991.22305.262.4661.52911.72838.81439,1.18635,1.29,1.85046,2.01227,2.947,2.13379a2.66306,2.66306,0,0,0,2.11991-.62659,2.72405,2.72405,0,0,0,.75974-1.95532C302.93722,181.46847,302.02755,180.57736,300.825,179.39926Z" transform="translate(-69.03195 -134.88048)"/><path class="cls-11" d="M296.92611,193.25279c.03357.0329.06487.06122.09808.09363.1958-.15534.39907-.30481.61208-.447a26.15914,26.15914,0,0,0,3.25519-2.23864c.15632-.14081.313-.27283.46908-.40991-.223-.262-.46609-.52912-.72838-.8144-1.18635-1.29-1.85046-2.01226-2.947-2.13379a2.66311,2.66311,0,0,0-2.11991.62659,2.7241,2.7241,0,0,0-.75974,1.95532C294.81384,191.18357,295.72351,192.07469,296.92611,193.25279Z" transform="translate(-69.03195 -134.88048)"/><path class="cls-11" d="M300.825,189.75293c-.03357-.0329-.06487-.06122-.09809-.09363-.1958.15533-.39907.30481-.61208.447a26.16,26.16,0,0,0-3.25519,2.23865c-.15632.14081-.313.27282-.46908.40991.22305.262.4661.52911.72838.81439,1.18635,1.29,1.85046,2.01227,2.947,2.13379a2.66306,2.66306,0,0,0,2.11991-.62659,2.72405,2.72405,0,0,0,.75974-1.95532C302.93722,191.82214,302.02755,190.931,300.825,189.75293Z" transform="translate(-69.03195 -134.88048)"/><path class="cls-11" d="M296.73133,203.20171c.03357.03289.06487.06121.09808.09362.1958-.15533.39907-.30481.61208-.447a26.15922,26.15922,0,0,0,3.25519-2.23865c.15632-.1408.313-.27282.46908-.40991-.223-.262-.46609-.52911-.72838-.81439-1.18635-1.29-1.85046-2.01227-2.947-2.13379a2.66311,2.66311,0,0,0-2.11991.62659,2.7241,2.7241,0,0,0-.75974,1.95532C294.61906,201.13249,295.52873,202.0236,296.73133,203.20171Z" transform="translate(-69.03195 -134.88048)"/><path class="cls-11" d="M300.63017,199.70184c-.03357-.03289-.06487-.06122-.09808-.09362-.1958.15533-.39907.3048-.61208.447a26.15914,26.15914,0,0,0-3.25519,2.23864c-.15632.14081-.313.27283-.46908.40992.223.262.4661.52911.72838.81439,1.18635,1.29,1.85046,2.01227,2.947,2.13379a2.66311,2.66311,0,0,0,2.11991-.62659,2.7241,2.7241,0,0,0,.75974-1.95532C302.74244,201.77106,301.83277,200.87994,300.63017,199.70184Z" transform="translate(-69.03195 -134.88048)"/><path class="cls-11" d="M297.05832,213.15062c.03357.0329.06487.06122.09808.09363.19581-.15533.39908-.30481.61208-.447a26.15922,26.15922,0,0,0,3.25519-2.23865c.15632-.14081.313-.27283.46908-.40991-.223-.262-.46609-.52911-.72838-.81439-1.18635-1.29-1.85045-2.01227-2.947-2.13379a2.66307,2.66307,0,0,0-2.11991.62659,2.72414,2.72414,0,0,0-.75974,1.95532C294.94606,211.08141,295.85572,211.97252,297.05832,213.15062Z" transform="translate(-69.03195 -134.88048)"/><path class="cls-11" d="M300.95717,209.65076c-.03357-.0329-.06487-.06122-.09808-.09363-.19581.15534-.39908.30481-.61208.447a26.16029,26.16029,0,0,0-3.25519,2.23865c-.15632.14081-.313.27283-.46908.40991.223.262.46609.52912.72838.8144,1.18635,1.29,1.85045,2.01226,2.947,2.13378a2.66309,2.66309,0,0,0,2.11991-.62658,2.72415,2.72415,0,0,0,.75974-1.95532C303.06943,211.72,302.15977,210.82886,300.95717,209.65076Z" transform="translate(-69.03195 -134.88048)"/><path class="cls-11" d="M297.05832,223.50429c.03357.0329.06487.06122.09808.09363.19581-.15533.39908-.30481.61208-.447a26.15922,26.15922,0,0,0,3.25519-2.23865c.15632-.14081.313-.27283.46908-.40991-.223-.262-.46609-.52911-.72838-.81439-1.18635-1.29-1.85045-2.01227-2.947-2.13379a2.66309,2.66309,0,0,0-2.11991.62658,2.72417,2.72417,0,0,0-.75974,1.95533C294.94606,221.43508,295.85572,222.32619,297.05832,223.50429Z" transform="translate(-69.03195 -134.88048)"/><path class="cls-11" d="M300.95717,220.00443c-.03357-.0329-.06487-.06122-.09808-.09363-.19581.15534-.39908.30481-.61208.447a26.16029,26.16029,0,0,0-3.25519,2.23865c-.15632.14081-.313.27283-.46908.40991.223.262.46609.52912.72838.8144,1.18635,1.29,1.85045,2.01226,2.947,2.13378a2.66309,2.66309,0,0,0,2.11991-.62658,2.72415,2.72415,0,0,0,.75974-1.95532C303.06943,222.07364,302.15977,221.18253,300.95717,220.00443Z" transform="translate(-69.03195 -134.88048)"/><path class="cls-11" d="M296.86354,233.45321c.03357.0329.06487.06122.09808.09363.1958-.15534.39908-.30481.61208-.447a26.16029,26.16029,0,0,0,3.25519-2.23865c.15632-.14081.313-.27283.46908-.40991-.223-.262-.46609-.52912-.72838-.8144-1.18635-1.29-1.85046-2.01226-2.947-2.13379a2.66311,2.66311,0,0,0-2.11991.62659,2.72411,2.72411,0,0,0-.75974,1.95532C294.75127,231.384,295.66094,232.27511,296.86354,233.45321Z" transform="translate(-69.03195 -134.88048)"/><path class="cls-11" d="M300.76239,229.95335c-.03357-.0329-.06487-.06122-.09808-.09363-.19581.15533-.39908.30481-.61208.447a26.15932,26.15932,0,0,0-3.2552,2.23865c-.15632.14081-.313.27283-.46908.40991.22305.262.4661.52911.72838.81439,1.18635,1.29,1.85046,2.01227,2.947,2.13379a2.66309,2.66309,0,0,0,2.11992-.62659,2.72414,2.72414,0,0,0,.75974-1.95532C302.87465,232.02256,301.965,231.13145,300.76239,229.95335Z" transform="translate(-69.03195 -134.88048)"/><path class="cls-11" d="M297.2531,243.98488c.03357.0329.06487.06122.09808.09363.19581-.15534.39908-.30481.61208-.447a26.1604,26.1604,0,0,0,3.2552-2.23865c.15632-.14081.313-.27283.46908-.40991-.22305-.262-.4661-.52912-.72838-.8144-1.18635-1.29-1.85046-2.01226-2.947-2.13378a2.66311,2.66311,0,0,0-2.11992.62658,2.72416,2.72416,0,0,0-.75974,1.95533C295.14084,241.91567,296.05051,242.80678,297.2531,243.98488Z" transform="translate(-69.03195 -134.88048)"/><path class="cls-11" d="M301.152,240.485c-.03357-.0329-.06487-.06122-.09808-.09363-.1958.15533-.39907.30481-.61208.447a26.15922,26.15922,0,0,0-3.25519,2.23865c-.15632.14081-.313.27283-.46908.40991.223.262.46609.52911.72838.81439,1.18635,1.29,1.85046,2.01227,2.947,2.13379a2.66309,2.66309,0,0,0,2.11991-.62658,2.72413,2.72413,0,0,0,.75974-1.95533C303.26422,242.55423,302.35455,241.66312,301.152,240.485Z" transform="translate(-69.03195 -134.88048)"/><path class="cls-11" d="M297.2531,254.33855c.03357.0329.06487.06122.09808.09363.19581-.15534.39908-.30481.61208-.447a26.1604,26.1604,0,0,0,3.2552-2.23865c.15632-.14081.313-.27283.46908-.40991-.22305-.262-.4661-.52912-.72838-.8144-1.18635-1.29-1.85046-2.01226-2.947-2.13378a2.66311,2.66311,0,0,0-2.11992.62658,2.72415,2.72415,0,0,0-.75974,1.95532C295.14084,252.26934,296.05051,253.16045,297.2531,254.33855Z" transform="translate(-69.03195 -134.88048)"/><path class="cls-11" d="M301.152,250.83869c-.03357-.0329-.06487-.06122-.09808-.09363-.1958.15533-.39907.30481-.61208.447a26.15922,26.15922,0,0,0-3.25519,2.23865c-.15632.14081-.313.27283-.46908.40991.223.262.46609.52911.72838.81439,1.18635,1.29,1.85046,2.01227,2.947,2.13379a2.66309,2.66309,0,0,0,2.11991-.62658,2.72413,2.72413,0,0,0,.75974-1.95533C303.26422,252.9079,302.35455,252.01679,301.152,250.83869Z" transform="translate(-69.03195 -134.88048)"/><path class="cls-11" d="M297.05832,264.28747c.03357.03289.06487.06122.09808.09362.19581-.15533.39908-.3048.61208-.447a26.15914,26.15914,0,0,0,3.25519-2.23864c.15632-.14081.313-.27283.46908-.40992-.223-.262-.46609-.52911-.72838-.81439-1.18635-1.29-1.85045-2.01227-2.947-2.13379a2.66311,2.66311,0,0,0-2.11991.62659,2.72414,2.72414,0,0,0-.75974,1.95532C294.94606,262.21825,295.85572,263.10937,297.05832,264.28747Z" transform="translate(-69.03195 -134.88048)"/><path class="cls-11" d="M300.95717,260.7876c-.03357-.03289-.06487-.06121-.09808-.09362-.19581.15533-.39908.30481-.61208.447a26.15922,26.15922,0,0,0-3.25519,2.23865c-.15632.1408-.313.27282-.46908.40991.223.262.46609.52911.72838.81439,1.18635,1.29,1.85045,2.01227,2.947,2.13379a2.66311,2.66311,0,0,0,2.11991-.62659,2.72414,2.72414,0,0,0,.75974-1.95532C303.06943,262.85682,302.15977,261.96571,300.95717,260.7876Z" transform="translate(-69.03195 -134.88048)"/><path class="cls-11" d="M296.98433,274.23638c.03357.0329.06487.06122.09808.09363.19581-.15533.39908-.30481.61208-.447a26.15922,26.15922,0,0,0,3.25519-2.23865c.15632-.14081.313-.27282.46908-.40991-.223-.262-.46609-.52911-.72838-.81439-1.18635-1.29-1.85045-2.01227-2.947-2.13379a2.66307,2.66307,0,0,0-2.11991.62659,2.72414,2.72414,0,0,0-.75974,1.95532C294.87207,272.16717,295.78173,273.05828,296.98433,274.23638Z" transform="translate(-69.03195 -134.88048)"/><path class="cls-11" d="M300.88318,270.73652c-.03357-.0329-.06487-.06122-.09808-.09363-.19581.15534-.39908.30481-.61208.447a26.1584,26.1584,0,0,0-3.25519,2.23864c-.15632.14081-.313.27283-.46908.40991.223.262.46609.52912.72838.8144,1.18635,1.29,1.85045,2.01226,2.947,2.13379a2.66311,2.66311,0,0,0,2.11991-.62659,2.72414,2.72414,0,0,0,.75974-1.95532C302.99544,272.80574,302.08578,271.91462,300.88318,270.73652Z" transform="translate(-69.03195 -134.88048)"/><path class="cls-11" d="M321.61717,152.28717c-.03357.0329-.06487.06122-.09808.09363-.19581-.15534-.39908-.30481-.61208-.447a26.15955,26.15955,0,0,1-3.25519-2.23865c-.15632-.14081-.313-.27283-.46908-.40991.223-.262.46609-.52912.72838-.81439,1.18635-1.29,1.85045-2.01227,2.947-2.13379a2.66309,2.66309,0,0,1,2.11991.62658,2.72416,2.72416,0,0,1,.75974,1.95533C323.72943,150.218,322.81976,151.10907,321.61717,152.28717Z" transform="translate(-69.03195 -134.88048)"/><path class="cls-11" d="M317.71832,148.78731c.03357-.0329.06487-.06122.09808-.09363.19581.15533.39908.30481.61208.447a26.16029,26.16029,0,0,1,3.25519,2.23865c.15632.14081.313.27283.46908.40991-.223.262-.46609.52912-.72838.81439-1.18635,1.29-1.85045,2.01227-2.947,2.13379a2.66309,2.66309,0,0,1-2.11991-.62658,2.72417,2.72417,0,0,1-.75974-1.95533C315.60606,150.85652,316.51572,149.96541,317.71832,148.78731Z" transform="translate(-69.03195 -134.88048)"/><path class="cls-11" d="M321.61717,162.64084c-.03357.0329-.06487.06122-.09808.09363-.19581-.15534-.39908-.30481-.61208-.447a26.15955,26.15955,0,0,1-3.25519-2.23865c-.15632-.14081-.313-.27283-.46908-.40991.223-.262.46609-.52912.72838-.8144,1.18635-1.29,1.85045-2.01226,2.947-2.13378a2.66309,2.66309,0,0,1,2.11991.62658,2.72416,2.72416,0,0,1,.75974,1.95533C323.72943,160.57163,322.81976,161.46274,321.61717,162.64084Z" transform="translate(-69.03195 -134.88048)"/><path class="cls-11" d="M317.71832,159.141c.03357-.0329.06487-.06122.09808-.09363.19581.15533.39908.30481.61208.447a26.15922,26.15922,0,0,1,3.25519,2.23865c.15632.14081.313.27283.46908.40991-.223.262-.46609.52911-.72838.81439-1.18635,1.29-1.85045,2.01227-2.947,2.13379a2.66309,2.66309,0,0,1-2.11991-.62658,2.72417,2.72417,0,0,1-.75974-1.95533C315.60606,161.21019,316.51572,160.31908,317.71832,159.141Z" transform="translate(-69.03195 -134.88048)"/><path class="cls-11" d="M321.812,172.58976c-.03357.0329-.06487.06122-.09808.09363-.19581-.15534-.39908-.30481-.61208-.447a26.15914,26.15914,0,0,1-3.25519-2.23864c-.15632-.14081-.313-.27283-.46908-.40992.223-.262.46609-.52911.72838-.81439,1.18635-1.29,1.85045-2.01227,2.947-2.13379a2.66311,2.66311,0,0,1,2.11991.62659,2.72414,2.72414,0,0,1,.75974,1.95532C323.92422,170.52054,323.01455,171.41166,321.812,172.58976Z" transform="translate(-69.03195 -134.88048)"/><path class="cls-11" d="M317.9131,169.08989c.03357-.03289.06487-.06121.09808-.09362.19581.15533.39908.30481.61208.447a26.15847,26.15847,0,0,1,3.25519,2.23865c.15632.1408.313.27282.46909.40991-.22305.262-.4661.52911-.72838.81439-1.18635,1.29-1.85046,2.01227-2.947,2.13379a2.66313,2.66313,0,0,1-2.11992-.62659,2.72414,2.72414,0,0,1-.75974-1.95532C315.80084,171.15911,316.71051,170.268,317.9131,169.08989Z" transform="translate(-69.03195 -134.88048)"/><path class="cls-11" d="M321.71456,182.89912c-.03357.0329-.06487.06122-.09808.09363-.19581-.15534-.39908-.30481-.61208-.447a26.16029,26.16029,0,0,1-3.25519-2.23865c-.15632-.14081-.313-.27283-.46908-.40991.223-.262.46609-.52912.72838-.8144,1.18635-1.29,1.85045-2.01226,2.947-2.13379a2.66311,2.66311,0,0,1,2.11991.62659,2.72415,2.72415,0,0,1,.75974,1.95532C323.82682,180.8299,322.91716,181.721,321.71456,182.89912Z" transform="translate(-69.03195 -134.88048)"/><path class="cls-11" d="M317.81571,179.39926c.03357-.0329.06487-.06122.09808-.09363.19581.15533.39908.30481.61208.447a26.15922,26.15922,0,0,1,3.25519,2.23865c.15632.14081.313.27282.46908.40991-.223.262-.46609.52911-.72838.81439-1.18635,1.29-1.85045,2.01227-2.947,2.13379a2.66307,2.66307,0,0,1-2.11991-.62659,2.72414,2.72414,0,0,1-.75974-1.95532C315.70345,181.46847,316.61311,180.57736,317.81571,179.39926Z" transform="translate(-69.03195 -134.88048)"/><path class="cls-11" d="M321.71456,193.25279c-.03357.0329-.06487.06122-.09808.09363-.19581-.15534-.39908-.30481-.61208-.447a26.15914,26.15914,0,0,1-3.25519-2.23864c-.15632-.14081-.313-.27283-.46908-.40991.223-.262.46609-.52912.72838-.8144,1.18635-1.29,1.85045-2.01226,2.947-2.13379a2.66311,2.66311,0,0,1,2.11991.62659,2.72414,2.72414,0,0,1,.75974,1.95532C323.82682,191.18357,322.91716,192.07469,321.71456,193.25279Z" transform="translate(-69.03195 -134.88048)"/><path class="cls-11" d="M317.81571,189.75293c.03357-.0329.06487-.06122.09808-.09363.19581.15533.39908.30481.61208.447a26.15922,26.15922,0,0,1,3.25519,2.23865c.15632.14081.313.27282.46908.40991-.223.262-.46609.52911-.72838.81439-1.18635,1.29-1.85045,2.01227-2.947,2.13379a2.66307,2.66307,0,0,1-2.11991-.62659,2.72414,2.72414,0,0,1-.75974-1.95532C315.70345,191.82214,316.61311,190.931,317.81571,189.75293Z" transform="translate(-69.03195 -134.88048)"/><path class="cls-11" d="M321.90934,203.20171c-.03357.03289-.06487.06121-.09808.09362-.1958-.15533-.39907-.30481-.61208-.447a26.15922,26.15922,0,0,1-3.25519-2.23865c-.15632-.1408-.313-.27282-.46908-.40991.223-.262.46609-.52911.72838-.81439,1.18635-1.29,1.85046-2.01227,2.947-2.13379a2.66311,2.66311,0,0,1,2.11991.62659,2.7241,2.7241,0,0,1,.75974,1.95532C324.02161,201.13249,323.11194,202.0236,321.90934,203.20171Z" transform="translate(-69.03195 -134.88048)"/><path class="cls-11" d="M318.01049,199.70184c.03357-.03289.06487-.06122.09808-.09362.19581.15533.39908.3048.61209.447a26.15988,26.15988,0,0,1,3.25519,2.23864c.15632.14081.313.27283.46908.40992-.22305.262-.4661.52911-.72838.81439-1.18635,1.29-1.85046,2.01227-2.947,2.13379a2.66313,2.66313,0,0,1-2.11992-.62659,2.72414,2.72414,0,0,1-.75974-1.95532C315.89823,201.77106,316.8079,200.87994,318.01049,199.70184Z" transform="translate(-69.03195 -134.88048)"/><path class="cls-11" d="M321.58235,213.15062c-.03357.0329-.06487.06122-.09809.09363-.1958-.15533-.39907-.30481-.61208-.447a26.16,26.16,0,0,1-3.25519-2.23865c-.15632-.14081-.313-.27283-.46908-.40991.22305-.262.4661-.52911.72838-.81439,1.18635-1.29,1.85046-2.01227,2.947-2.13379a2.66309,2.66309,0,0,1,2.11992.62659,2.72408,2.72408,0,0,1,.75973,1.95532C323.69461,211.08141,322.78494,211.97252,321.58235,213.15062Z" transform="translate(-69.03195 -134.88048)"/><path class="cls-11" d="M317.6835,209.65076c.03357-.0329.06487-.06122.09808-.09363.1958.15534.39907.30481.61208.447a26.16029,26.16029,0,0,1,3.25519,2.23865c.15632.14081.313.27283.46908.40991-.223.262-.46609.52912-.72838.8144-1.18635,1.29-1.85046,2.01226-2.947,2.13378a2.66309,2.66309,0,0,1-2.11991-.62658,2.72411,2.72411,0,0,1-.75974-1.95532C315.57123,211.72,316.4809,210.82886,317.6835,209.65076Z" transform="translate(-69.03195 -134.88048)"/><path class="cls-11" d="M321.58235,223.50429c-.03357.0329-.06487.06122-.09809.09363-.1958-.15533-.39907-.30481-.61208-.447a26.16,26.16,0,0,1-3.25519-2.23865c-.15632-.14081-.313-.27283-.46908-.40991.22305-.262.4661-.52911.72838-.81439,1.18635-1.29,1.85046-2.01227,2.947-2.13379a2.66311,2.66311,0,0,1,2.11992.62658,2.72411,2.72411,0,0,1,.75973,1.95533C323.69461,221.43508,322.78494,222.32619,321.58235,223.50429Z" transform="translate(-69.03195 -134.88048)"/><path class="cls-11" d="M317.6835,220.00443c.03357-.0329.06487-.06122.09808-.09363.1958.15534.39907.30481.61208.447a26.16029,26.16029,0,0,1,3.25519,2.23865c.15632.14081.313.27283.46908.40991-.223.262-.46609.52912-.72838.8144-1.18635,1.29-1.85046,2.01226-2.947,2.13378a2.66309,2.66309,0,0,1-2.11991-.62658,2.72411,2.72411,0,0,1-.75974-1.95532C315.57123,222.07364,316.4809,221.18253,317.6835,220.00443Z" transform="translate(-69.03195 -134.88048)"/><path class="cls-11" d="M321.77713,233.45321c-.03357.0329-.06487.06122-.09808.09363-.19581-.15534-.39908-.30481-.61208-.447a26.15955,26.15955,0,0,1-3.25519-2.23865c-.15632-.14081-.313-.27283-.46908-.40991.223-.262.46609-.52912.72838-.8144,1.18635-1.29,1.85045-2.01226,2.947-2.13379a2.66311,2.66311,0,0,1,2.11991.62659,2.72415,2.72415,0,0,1,.75974,1.95532C323.88939,231.384,322.97972,232.27511,321.77713,233.45321Z" transform="translate(-69.03195 -134.88048)"/><path class="cls-11" d="M317.87828,229.95335c.03357-.0329.06487-.06122.09808-.09363.19581.15533.39908.30481.61208.447a26.15922,26.15922,0,0,1,3.25519,2.23865c.15632.14081.313.27283.46908.40991-.223.262-.46609.52911-.72838.81439-1.18635,1.29-1.85045,2.01227-2.947,2.13379a2.66307,2.66307,0,0,1-2.11991-.62659,2.72414,2.72414,0,0,1-.75974-1.95532C315.766,232.02256,316.67568,231.13145,317.87828,229.95335Z" transform="translate(-69.03195 -134.88048)"/><path class="cls-11" d="M321.38756,243.98488c-.03357.0329-.06487.06122-.09808.09363-.1958-.15534-.39907-.30481-.61208-.447a26.16029,26.16029,0,0,1-3.25519-2.23865c-.15632-.14081-.313-.27283-.46908-.40991.223-.262.4661-.52912.72838-.8144,1.18635-1.29,1.85046-2.01226,2.947-2.13378a2.66309,2.66309,0,0,1,2.11991.62658,2.72412,2.72412,0,0,1,.75974,1.95533C323.49983,241.91567,322.59016,242.80678,321.38756,243.98488Z" transform="translate(-69.03195 -134.88048)"/><path class="cls-11" d="M317.48872,240.485c.03357-.0329.06487-.06122.09808-.09363.1958.15533.39907.30481.61208.447a26.15922,26.15922,0,0,1,3.25519,2.23865c.15632.14081.313.27283.46908.40991-.223.262-.46609.52911-.72838.81439-1.18635,1.29-1.85046,2.01227-2.947,2.13379a2.66309,2.66309,0,0,1-2.11991-.62658,2.72413,2.72413,0,0,1-.75974-1.95533C315.37645,242.55423,316.28612,241.66312,317.48872,240.485Z" transform="translate(-69.03195 -134.88048)"/><path class="cls-11" d="M321.38756,254.33855c-.03357.0329-.06487.06122-.09808.09363-.1958-.15534-.39907-.30481-.61208-.447a26.16029,26.16029,0,0,1-3.25519-2.23865c-.15632-.14081-.313-.27283-.46908-.40991.223-.262.4661-.52912.72838-.8144,1.18635-1.29,1.85046-2.01226,2.947-2.13378a2.66309,2.66309,0,0,1,2.11991.62658,2.72411,2.72411,0,0,1,.75974,1.95532C323.49983,252.26934,322.59016,253.16045,321.38756,254.33855Z" transform="translate(-69.03195 -134.88048)"/><path class="cls-11" d="M317.48872,250.83869c.03357-.0329.06487-.06122.09808-.09363.1958.15533.39907.30481.61208.447a26.15922,26.15922,0,0,1,3.25519,2.23865c.15632.14081.313.27283.46908.40991-.223.262-.46609.52911-.72838.81439-1.18635,1.29-1.85046,2.01227-2.947,2.13379a2.66309,2.66309,0,0,1-2.11991-.62658,2.72413,2.72413,0,0,1-.75974-1.95533C315.37645,252.9079,316.28612,252.01679,317.48872,250.83869Z" transform="translate(-69.03195 -134.88048)"/><path class="cls-11" d="M321.58235,264.28747c-.03357.03289-.06487.06122-.09809.09362-.1958-.15533-.39907-.3048-.61208-.447a26.15988,26.15988,0,0,1-3.25519-2.23864c-.15632-.14081-.313-.27283-.46908-.40992.22305-.262.4661-.52911.72838-.81439,1.18635-1.29,1.85046-2.01227,2.947-2.13379a2.66313,2.66313,0,0,1,2.11992.62659,2.72408,2.72408,0,0,1,.75973,1.95532C323.69461,262.21825,322.78494,263.10937,321.58235,264.28747Z" transform="translate(-69.03195 -134.88048)"/><path class="cls-11" d="M317.6835,260.7876c.03357-.03289.06487-.06121.09808-.09362.1958.15533.39907.30481.61208.447a26.15922,26.15922,0,0,1,3.25519,2.23865c.15632.1408.313.27282.46908.40991-.223.262-.46609.52911-.72838.81439-1.18635,1.29-1.85046,2.01227-2.947,2.13379a2.66311,2.66311,0,0,1-2.11991-.62659,2.7241,2.7241,0,0,1-.75974-1.95532C315.57123,262.85682,316.4809,261.96571,317.6835,260.7876Z" transform="translate(-69.03195 -134.88048)"/><path class="cls-11" d="M321.65634,274.23638c-.03357.0329-.06487.06122-.09808.09363-.19581-.15533-.39908-.30481-.61208-.447a26.15932,26.15932,0,0,1-3.2552-2.23865c-.15632-.14081-.313-.27282-.46908-.40991.22305-.262.4661-.52911.72838-.81439,1.18635-1.29,1.85046-2.01227,2.947-2.13379a2.66309,2.66309,0,0,1,2.11992.62659,2.72414,2.72414,0,0,1,.75974,1.95532C323.7686,272.16717,322.85893,273.05828,321.65634,274.23638Z" transform="translate(-69.03195 -134.88048)"/><path class="cls-11" d="M317.75749,270.73652c.03357-.0329.06487-.06122.09808-.09363.1958.15534.39907.30481.61208.447a26.15914,26.15914,0,0,1,3.25519,2.23864c.15632.14081.313.27283.46908.40991-.223.262-.46609.52912-.72838.8144-1.18635,1.29-1.85046,2.01226-2.947,2.13379a2.66311,2.66311,0,0,1-2.11991-.62659,2.7241,2.7241,0,0,1-.75974-1.95532C315.64522,272.80574,316.55489,271.91462,317.75749,270.73652Z" transform="translate(-69.03195 -134.88048)"/><line class="cls-17" x1="240.04077" y1="4.19109" x2="240.04077" y2="152.7377"/><path class="cls-18" d="M260.69135,170.89293q-2.47275,4-4.94546,8" transform="translate(-69.03195 -134.88048)"/><ellipse class="cls-19" cx="197.8412" cy="31.25329" rx="1.27273" ry="1.5334"/><path class="cls-18" d="M356.599,170.27015q2.47275,4,4.94546,8" transform="translate(-69.03195 -134.88048)"/><ellipse class="cls-19" cx="281.38528" cy="30.63051" rx="1.27273" ry="1.5334"/></g><g id="Bat_2" data-name="Bat 2"><path class="cls-20" d="M257.0536,471.34648a113.16561,113.16561,0,0,0-40.14545-53.38184q142.4-119.12727,284.8-238.25454A54.07985,54.07985,0,0,1,529.49,193.52829c15.94429,15.11473,16.66531,34.96806,16.72728,38.98181Q401.63542,351.92831,257.0536,471.34648Z" transform="translate(-69.03195 -134.88048)"/><path class="cls-21" d="M501.70815,179.7101Q358.36269,298.83737,215.01722,417.96464c1.46906,5.42292,2.82148,13.78248,0,22.69092-3.78134,11.93915-12.95779,18.22815-24.14544,26.76364-12.97043,9.89563-24.29044,21.88184-37.52725,31.41819C136.436,511.019,110.64232,531.39839,72.18089,567.201a13.95381,13.95381,0,0,0,2.61816,9.89093c4.48676,5.88276,12.02149,5.28345,12.5091,5.23633C160.72407,521.9015,214.951,478.38582,225.78087,470.91011a24.15237,24.15237,0,0,1,12.8-4.65454c7.32593-.27982,13.44181,3.45425,17.45453,6.69089L546.21724,232.5101c-.18783-4.535-1.46585-22.73849-16.14546-37.52727A56.30049,56.30049,0,0,0,501.70815,179.7101Z" transform="translate(-69.03195 -134.88048)"/><polygon class="cls-22" points="475.549 85.193 181.331 321.811 186.567 334.902 475.549 98.939 475.549 85.193"/><polygon class="cls-23" points="324.74 206.721 308.022 221.348 318.66 227.23 337.658 211.471 324.74 206.721"/><path class="cls-23" d="M374.1693,356.87373q-5.71991,4.738-11.43981,9.476,6.12912,3.62563,12.25821,7.2513l13.46591-11.11636Z" transform="translate(-69.03195 -134.88048)"/><line class="cls-24" x1="343.52282" y1="211.30235" x2="267.37736" y2="183.1569"/><path class="cls-24" d="M322.14451,329.16465" transform="translate(-69.03195 -134.88048)"/><path class="cls-14" d="M337.19905,320.801q-5.3091,4.36363-10.61817,8.72726,25.23638,13.0909,50.47272,26.18183,8-7.05456,16-14.10907Q365.12633,331.201,337.19905,320.801Z" transform="translate(-69.03195 -134.88048)"/><path class="cls-24" d="M388.45361,363.75783q-33.15455-17.2966-66.3091-34.59317" transform="translate(-69.03195 -134.88048)"/><path class="cls-14" d="M322.14451,332.11009l-4.29092,4.69092q23.49092,13.89093,46.98183,27.78183,3.7091-3.12726,7.41818-6.25455" transform="translate(-69.03195 -134.88048)"/><line class="cls-10" x1="307.54892" y1="238.72053" x2="245.18528" y2="201.77508"/><circle class="cls-25" cx="423.05801" cy="71.53872" r="2.63636"/><path class="cls-25" d="M503.23542,193.96464l-7.27272,5.89092a2.5384,2.5384,0,0,0,.29091,3.41818,2.45112,2.45112,0,0,0,2.61134.2059l7.35229-5.95135a2.364,2.364,0,1,0-2.98182-3.56365Z" transform="translate(-69.03195 -134.88048)"/><circle class="cls-25" cx="284.83075" cy="236.52053" r="2.2"/><circle class="cls-25" cx="290.36414" cy="239.72053" r="2.2"/><circle class="cls-25" cx="284.83075" cy="242.48417" r="2.2"/><path class="cls-26" d="M253.16617,467.85554l-4.497-11.2a30.29648,30.29648,0,0,0-12.36683-.14544,28.57991,28.57991,0,0,0-12.8487,6.10907l2.73036,6.69091Z" transform="translate(-69.03195 -134.88048)"/><path class="cls-6" d="M218.9445,421.8192a87.66233,87.66233,0,0,1,28.5091,34.69092,55.587,55.587,0,0,0-24,6.10907l-9.81818-12.5091q.91483-5.5989,1.96365-11.34543Q217.18573,430.08446,218.9445,421.8192Z" transform="translate(-69.03195 -134.88048)"/><path class="cls-27" d="M140.18089,511.27373q4.8,5.67274,9.6,11.34549,35.23635-28.69094,70.47274-57.38184l-9.6-11.34546Q175.41725,482.58281,140.18089,511.27373Z" transform="translate(-69.03195 -134.88048)"/><path class="cls-28" d="M220.25361,465.23738q-35.23635,28.69094-70.47274,57.38184,1.3818,1.89093,2.76364,3.7818Q187.999,497.85556,223.4536,469.3101Z" transform="translate(-69.03195 -134.88048)"/><path class="cls-14" d="M136.18089,514.61922l-8.2182,5.81817q5.34544,5.85453,10.69092,11.709,3.70907-2.98179,7.41818-5.96363Q141.12634,520.401,136.18089,514.61922Z" transform="translate(-69.03195 -134.88048)"/><path class="cls-15" d="M139.30816,538.47377l-3.78183-5.23639q-3.63634,2.65456-7.27271,5.30908,2,2.47275,4,4.94544Q135.78089,540.98281,139.30816,538.47377Z" transform="translate(-69.03195 -134.88048)"/><path class="cls-14" d="M135.74452,534.18281l-6.69092,4.8q-4.94545-5.3454-9.8909-10.69085l6.69089-6.10914Z" transform="translate(-69.03195 -134.88048)"/><polygon class="cls-28" points="51.076 420.175 28.894 438.357 25.237 433.993 47.803 415.407 51.076 420.175"/><path class="cls-15" d="M130.10815,546.11014l-3.78183-5.23638q-3.63633,2.65457-7.2727,5.30908,2,2.47275,4,4.94543Q126.58087,548.61918,130.10815,546.11014Z" transform="translate(-69.03195 -134.88048)"/><path class="cls-14" d="M116.83543,529.67372q-3.4909,2.8364-6.98184,5.67273,5.09092,5.96366,10.18182,11.92731,3.2-2.98179,6.4-5.96363Z" transform="translate(-69.03195 -134.88048)"/><polygon class="cls-15" points="77.04 391.302 69.622 397.266 71.949 400.175 80.094 394.648 77.04 391.302"/><path class="cls-27" d="M106.9445,539.05556q-10.83636,9.17028-21.67273,18.34051l8.99677,11.47766,22.56689-18.58642Q111.89,544.67146,106.9445,539.05556Z" transform="translate(-69.03195 -134.88048)"/><path class="cls-26" d="M95.67181,573.96468q-1.49094-2.25459-2.98182-4.5091-6.8,4.65454-13.6,9.30908l5.38183,4.14545Z" transform="translate(-69.03195 -134.88048)"/><path class="cls-6" d="M83.6718,560.51009,74.29,567.6374a10.72591,10.72591,0,0,0,7.49091,11.12726l10.25457-8Z" transform="translate(-69.03195 -134.88048)"/><line class="cls-3" x1="81.9853" y1="394.21144" x2="67.98529" y2="377.26599"/><line class="cls-3" x1="72.96712" y1="403.48416" x2="57.40345" y2="386.06599"/><line class="cls-3" x1="63.22166" y1="411.12053" x2="48.6762" y2="393.84781"/><line class="cls-3" x1="53.57794" y1="418.58204" x2="39.00347" y2="401.04781"/><line class="cls-29" x1="29.23453" y1="439.26761" x2="14.97998" y2="422.35852"/><line class="cls-3" x1="158.60348" y1="336.87113" x2="141.7671" y2="315.9569"/><path class="cls-21" d="M501.70815,179.7101Q358.36269,298.83737,215.01722,417.96464c1.46906,5.42292,2.82148,13.78248,0,22.69092-3.78134,11.93915-12.95779,18.22815-24.14544,26.76364-12.97043,9.89563-24.29044,21.88184-37.52725,31.41819C136.436,511.019,110.64232,531.39839,72.18089,567.201a13.95381,13.95381,0,0,0,2.61816,9.89093c4.48676,5.88276,12.02149,5.28345,12.5091,5.23633C160.72407,521.9015,214.951,478.38582,225.78087,470.91011a24.15237,24.15237,0,0,1,12.8-4.65454c7.32593-.27982,13.44181,3.45425,17.45453,6.69089L546.21724,232.5101c-.18783-4.535-1.46585-22.73849-16.14546-37.52727A56.30049,56.30049,0,0,0,501.70815,179.7101Z" transform="translate(-69.03195 -134.88048)"/><path class="cls-21" d="M257.0536,471.34648a113.16561,113.16561,0,0,0-40.14545-53.38184q142.4-119.12727,284.8-238.25454A54.07985,54.07985,0,0,1,529.49,193.52829c15.94429,15.11473,16.66531,34.96806,16.72728,38.98181Q401.63542,351.92831,257.0536,471.34648Z" transform="translate(-69.03195 -134.88048)"/></g><g id="Bat"><path class="cls-20" d="M361.25455,471.61819A113.16542,113.16542,0,0,1,401.4,418.23636L116.6,179.98181A54.07991,54.07991,0,0,0,88.81818,193.8c-15.94428,15.11473-16.6653,34.96807-16.72727,38.98181Q216.67273,352.2,361.25455,471.61819Z" transform="translate(-69.03195 -134.88048)"/><path class="cls-21" d="M116.6,179.98181,403.29092,418.23636c-1.46905,5.42291-2.82147,13.78247,0,22.69092,3.78135,11.93914,12.9578,18.22815,24.14545,26.76364,12.97043,9.89563,24.29044,21.88183,37.52725,31.41818,16.90851,12.18158,42.70221,32.561,81.16364,68.36362a13.95379,13.95379,0,0,1-2.61817,9.89093C539.02234,583.2464,531.48761,582.64709,531,582.6c-73.41592-60.42676-127.64288-103.94245-138.47272-111.41816a24.15237,24.15237,0,0,0-12.8-4.65454c-7.32592-.27981-13.4418,3.45426-17.45452,6.69089Q217.18184,353,72.09091,232.78181c.18783-4.535,1.46585-22.73849,16.14546-37.52726A56.30061,56.30061,0,0,1,116.6,179.98181Z" transform="translate(-69.03195 -134.88048)"/><polygon class="cls-22" points="4.695 85.465 298.914 322.083 293.677 335.174 4.695 99.21 4.695 85.465"/><polygon class="cls-23" points="155.505 206.992 172.223 221.62 161.584 227.501 142.586 211.743 155.505 206.992"/><path class="cls-23" d="M244.13885,357.14545q5.71991,4.738,11.43981,9.476-6.12912,3.62564-12.25821,7.2513l-13.46591-11.11637Z" transform="translate(-69.03195 -134.88048)"/><line class="cls-24" x1="136.72142" y1="211.57407" x2="212.86688" y2="183.42861"/><path class="cls-24" d="M296.16364,329.43636" transform="translate(-69.03195 -134.88048)"/><path class="cls-14" d="M281.1091,321.07272q5.3091,4.36363,10.61816,8.72727-25.23636,13.09089-50.47271,26.18182-8-7.05455-16-14.10907Q253.18182,331.47272,281.1091,321.07272Z" transform="translate(-69.03195 -134.88048)"/><path class="cls-24" d="M229.85454,364.02954q33.15455-17.2966,66.3091-34.59317" transform="translate(-69.03195 -134.88048)"/><path class="cls-14" d="M296.16364,332.38181l4.29092,4.69091q-23.49092,13.89093-46.98183,27.78183-3.7091-3.12726-7.41818-6.25454" transform="translate(-69.03195 -134.88048)"/><line class="cls-10" x1="172.69532" y1="238.99225" x2="235.05897" y2="202.04679"/><circle class="cls-25" cx="57.18623" cy="71.81043" r="2.63636"/><path class="cls-25" d="M115.07273,194.23636l7.27272,5.89091a2.53842,2.53842,0,0,1-.29091,3.41819,2.45114,2.45114,0,0,1-2.61134.2059L112.09091,197.8a2.364,2.364,0,1,1,2.98182-3.56364Z" transform="translate(-69.03195 -134.88048)"/><circle class="cls-25" cx="195.4135" cy="236.79225" r="2.2"/><circle class="cls-25" cx="189.8801" cy="239.99225" r="2.2"/><circle class="cls-25" cx="195.4135" cy="242.75588" r="2.2"/><path class="cls-26" d="M365.142,468.12726l4.497-11.2a30.29661,30.29661,0,0,1,12.36683-.14545,28.58,28.58,0,0,1,12.8487,6.10907q-1.36518,3.34548-2.73036,6.69092Z" transform="translate(-69.03195 -134.88048)"/><path class="cls-6" d="M399.36365,422.09091a87.66233,87.66233,0,0,0-28.5091,34.69092,55.58733,55.58733,0,0,1,24,6.10907q4.90911-6.25457,9.81818-12.50909-.91484-5.59891-1.96365-11.34543Q401.12243,430.35617,399.36365,422.09091Z" transform="translate(-69.03195 -134.88048)"/><path class="cls-27" d="M478.12726,511.54544q-4.8,5.67274-9.6,11.34549Q433.29093,494.2,398.05453,465.50909l9.6-11.34545Q442.89091,482.85452,478.12726,511.54544Z" transform="translate(-69.03195 -134.88048)"/><path class="cls-28" d="M398.05453,465.50909Q433.2909,494.2,468.52728,522.89093q-1.3818,1.89093-2.76364,3.7818l-70.90909-57.09091Z" transform="translate(-69.03195 -134.88048)"/><path class="cls-14" d="M482.12726,514.89093q4.10912,2.90909,8.2182,5.81818l-10.69092,11.709q-3.70908-2.98177-7.41818-5.96362Q477.18182,520.6727,482.12726,514.89093Z" transform="translate(-69.03195 -134.88048)"/><path class="cls-15" d="M479,538.74548q1.89093-2.61822,3.78183-5.23639,3.63633,2.65458,7.2727,5.30909l-4,4.94543Q482.52727,541.25452,479,538.74548Z" transform="translate(-69.03195 -134.88048)"/><path class="cls-14" d="M482.56363,534.45453l6.69092,4.8q4.94544-5.3454,9.8909-10.69086-3.34543-3.05457-6.69089-6.10913Z" transform="translate(-69.03195 -134.88048)"/><polygon class="cls-28" points="429.168 420.447 451.35 438.629 455.008 434.265 432.441 415.679 429.168 420.447"/><path class="cls-15" d="M488.2,546.38186q1.89093-2.61823,3.78183-5.23639,3.63634,2.65456,7.27271,5.30908-2,2.47275-4,4.94544Q491.72728,548.8909,488.2,546.38186Z" transform="translate(-69.03195 -134.88048)"/><path class="cls-14" d="M501.47272,529.94543q3.4909,2.8364,6.98184,5.67273-5.09093,5.96366-10.18182,11.92731-3.2-2.98177-6.4-5.96362Z" transform="translate(-69.03195 -134.88048)"/><polygon class="cls-15" points="403.204 391.574 410.623 397.538 408.295 400.447 400.15 394.92 403.204 391.574"/><path class="cls-27" d="M511.36365,539.32727q10.83636,9.17029,21.67273,18.34052l-8.99677,11.47766L501.47272,550.559Z" transform="translate(-69.03195 -134.88048)"/><path class="cls-26" d="M522.63634,574.23639q1.49094-2.25458,2.98181-4.5091,6.8,4.65454,13.6,9.30909l-5.38184,4.14544Z" transform="translate(-69.03195 -134.88048)"/><path class="cls-6" d="M534.63635,560.7818l9.38184,7.12732a10.72591,10.72591,0,0,1-7.49091,11.12726l-10.25457-8Z" transform="translate(-69.03195 -134.88048)"/><line class="cls-3" x1="398.25894" y1="394.48316" x2="412.25896" y2="377.5377"/><line class="cls-3" x1="407.27713" y1="403.75587" x2="422.84079" y2="386.3377"/><line class="cls-3" x1="417.02258" y1="411.39225" x2="431.56805" y2="394.11952"/><line class="cls-3" x1="426.66631" y1="418.85375" x2="441.24077" y2="401.31952"/><line class="cls-29" x1="451.00972" y1="439.53933" x2="465.26426" y2="422.63024"/><line class="cls-3" x1="321.64076" y1="337.14284" x2="338.47714" y2="316.22861"/><path class="cls-21" d="M116.6,179.98181,403.29092,418.23636c-1.46905,5.42291-2.82147,13.78247,0,22.69092,3.78135,11.93914,12.9578,18.22815,24.14545,26.76364,12.97043,9.89563,24.29044,21.88183,37.52725,31.41818,16.90851,12.18158,42.70221,32.561,81.16364,68.36362a13.95379,13.95379,0,0,1-2.61817,9.89093C539.02234,583.2464,531.48761,582.64709,531,582.6c-73.41592-60.42676-127.64288-103.94245-138.47272-111.41816a24.15237,24.15237,0,0,0-12.8-4.65454c-7.32592-.27981-13.4418,3.45426-17.45452,6.69089Q217.18184,353,72.09091,232.78181c.18783-4.535,1.46585-22.73849,16.14546-37.52726A56.30061,56.30061,0,0,1,116.6,179.98181Z" transform="translate(-69.03195 -134.88048)"/><path class="cls-21" d="M361.25455,471.61819A113.16542,113.16542,0,0,1,401.4,418.23636L116.6,179.98181A54.07991,54.07991,0,0,0,88.81818,193.8c-15.94428,15.11473-16.6653,34.96807-16.72727,38.98181Q216.67273,352.2,361.25455,471.61819Z" transform="translate(-69.03195 -134.88048)"/></g></svg>